<svg xmlns="http://www.w3.org/2000/svg" width="1728" height="871" fill="none" viewBox="0 0 1728 871"><g clip-path="url(#clip0_201_118)"><rect width="1728" height="871" fill="#fff"/><path stroke="#000" stroke-opacity=".05" d="M2056 5C1052.97 18.1273 248.076 221.252 -325 440.825V1042H2056V5Z"/><path stroke="#000" stroke-opacity=".05" d="M2277 -148C1087.77 -133.556 133.46 89.9403 -546 331.533V993H2277V-148Z"/><path stroke="#000" stroke-opacity=".05" d="M2483 -315C1120.21 -296.201 26.6233 -5.32312 -752 309.108V1170H2483V-315Z"/><path fill="url(#paint0_radial_201_118)" d="M1983 178C1026.31 190.292 258.601 380.489 -288 586.087V1149H1983V178Z"/><path fill="url(#paint1_radial_201_118)" d="M1983 178C1026.31 190.292 258.601 380.489 -288 586.087V1149H1983V178Z"/><rect width="1728" height="242" y="629" fill="url(#paint2_linear_201_118)"/></g><defs><radialGradient id="paint0_radial_201_118" cx="0" cy="0" r="1" gradientTransform="translate(737.493 334.878) rotate(76.0122) scale(694.237 589.632)" gradientUnits="userSpaceOnUse"><stop stop-color="#F7F7F9"/><stop offset=".822" stop-color="#fff"/></radialGradient><radialGradient id="paint1_radial_201_118" cx="0" cy="0" r="1" gradientTransform="translate(848 253) rotate(75.9638) scale(193.786 1365.26)" gradientUnits="userSpaceOnUse"><stop stop-opacity=".03"/><stop offset="1" stop-opacity="0"/></radialGradient><linearGradient id="paint2_linear_201_118" x1="864" x2="864" y1="629" y2="871" gradientUnits="userSpaceOnUse"><stop stop-color="#fff" stop-opacity="0"/><stop offset="1" stop-color="#fff"/></linearGradient><clipPath id="clip0_201_118"><rect width="1728" height="871" fill="#fff"/></clipPath></defs></svg>